PathFileType	4	(X/Y/Z)	Patient4_TMGait_0pt3_01_left_25.trc.trc
DataRate	CameraRate	NumFrames	NumMarkers	Units	OrigDataRate	OrigDataStartFrame	OrigNumFrames
50.724637681159	50.724637681159	4	33	mm	50.724637681159	18	       141
Frame#	Time	Sacral			L.Shoulder			Chest			R.Shoulder			Neck			R.ASIS			L.ASIS			R.Thigh.Superior			R.Thigh.Lateral			R.Thigh.Inferior			R.Patella			L.Thigh.Superior			L.Thigh.Lateral			L.Thigh.Inferior			L.Patella			L.Shank.Superior			L.Shank.Lateral			L.Shank.Inferior			R.Shank.Superior			R.Shank.Lateral			R.Shank.Inferior			R.Heel			R.Midfoot.Superior			R.Midfoot.Lateral			R.Toe			L.Heel			L.Midfoot.Lateral			L.Midfoot.Superior			L.Toe			L.Elbow			L.Wrist			R.Elbow			R.Wrist			
		X1	Y1	Z1	X2	Y2	Z2	X3	Y3	Z3	X4	Y4	Z4	X5	Y5	Z5	X6	Y6	Z6	X7	Y7	Z7	X8	Y8	Z8	X9	Y9	Z9	X10	Y10	Z10	X11	Y11	Z11	X12	Y12	Z12	X13	Y13	Z13	X14	Y14	Z14	X15	Y15	Z15	X16	Y16	Z16	X17	Y17	Z17	X18	Y18	Z18	X19	Y19	Z19	X20	Y20	Z20	X21	Y21	Z21	X22	Y22	Z22	X23	Y23	Z23	X24	Y24	Z24	X25	Y25	Z25	X26	Y26	Z26	X27	Y27	Z27	X28	Y28	Z28	X29	Y29	Z29	X30	Y30	Z30	X31	Y31	Z31	X32	Y32	Z32	X33	Y33	Z33	

18	47.215142857143	709.730540945382	998.908691998855	612.030948132313	856.787225792684	1422.056618663122	393.616283205614	988.303439407100	1357.372224204980	533.854814238192	940.196577619388	1440.080713727985	716.474727320261	869.679070703025	1485.490993221215	548.232376341130	951.348847862284	932.157622405054	690.795963031908	899.114436337187	957.026786533472	422.425409002671	970.180711375999	724.179548428217	648.663530363298	885.318115489338	613.559488794261	708.479064323124	949.190500986321	562.076820247886	618.303464401528	941.438384840151	467.769943364081	620.132119178759	984.705319758212	775.670069463632	447.741752599548	939.915711823464	649.006568397459	366.848542857654	1042.811290589543	589.574796180885	429.471064634304	1069.893263545428	520.180202436422	420.678702908631	1042.992589103626	446.890793300642	405.448417915675	959.887090022831	331.082527067108	344.698798776392	1031.549697318668	216.624834356139	392.641367154551	892.167497188974	384.545953058940	623.448865021150	804.774653890532	292.315284658969	684.421568163702	820.831212328722	196.623001931013	613.307334729639	658.304121520892	46.998743669877	578.969377921059	830.612014377219	96.257503035236	618.191646816394	739.930451689636	38.076129231847	654.406301813649	948.126542764998	39.535942548309	649.006441093365	923.436963933983	46.290929727230	419.087221436400	997.673687852777	48.441887275055	339.335707791324	1076.634152764245	116.945726257933	364.539910233023	1206.238453238714	75.713812127787	335.358082277675	690.310077633113	1108.391931212890	319.105743112956	632.463089604318	856.440569610083	351.726879797308	1081.130797454112	1141.036769600234	860.387849780701	1335.525975443575	1116.128724312306	828.257608145632	
19	47.234857142857	708.902868069180	1000.295294663709	610.753078355442	855.313293405797	1422.769967655048	391.074168526137	987.900628583847	1357.526284375991	530.169435487293	941.562068220968	1440.902069065743	712.886294014856	869.461020060674	1486.011650730269	545.560352064077	950.478941432983	932.494832373858	688.368526073819	897.107909265652	957.241623093121	420.148622837766	966.301569945361	723.758759606752	647.138502295165	879.977353360563	614.423290318582	707.757860188156	942.766581685515	561.834825636870	617.727478972063	933.922166835087	468.125486746345	619.863535103869	980.978635205159	774.078189260312	444.701356733077	933.332967747267	647.493137502431	364.926600857091	1036.197946898916	587.393737108920	426.808248191778	1062.774686382120	519.241596184013	419.065008098970	1037.864155974344	446.342780673948	404.206831544192	958.492147516876	327.912643781774	343.265479517145	1033.135598175380	215.716364606732	392.159920259698	885.081674102539	385.061895405281	623.358252460910	797.924284096594	292.719341721052	684.602086334686	814.326624468753	196.938637738040	613.408719598459	652.235767724711	46.860830621829	579.069620448421	824.558974621987	96.224011073326	618.286534385947	733.888800257933	37.956783666708	654.483722209284	942.115824790034	39.559365877046	648.982804529776	929.113534453257	43.465098237026	418.266425518094	1004.181585377998	46.421549850728	339.213213691838	1081.726813322368	116.324580592360	364.968674402207	1212.398750250819	77.044073388380	337.380396371987	683.789334064004	1112.369074936032	319.211381820277	623.133405686815	861.084887458798	354.300216816007	1091.915794279456	1147.789515914416	855.740638259077	1346.446002007712	1135.726803407879	819.213174135127	
20	47.254571428571	708.090615598359	1001.072733562867	609.073902699230	854.185585761208	1422.906411532743	388.197619537222	987.616540002626	1357.133891072850	526.372726593469	942.731303507621	1441.119891610697	709.117451613691	869.371090408928	1486.041492749568	542.567317680045	949.660452755755	932.417739866524	685.828325256684	895.301403747468	956.840244532139	417.714443085536	962.936021241298	723.103408333277	645.497725583479	875.342348711983	614.927994332207	706.823228505142	937.189782251402	561.352831244755	616.962474999406	927.350225067749	468.116873192944	619.395831550977	977.643794913000	772.043996565111	441.613371620297	927.173969519397	645.513592988803	363.151451862677	1030.144872841437	584.941374232053	424.258894669141	1056.056391725823	517.680981163827	417.500956860868	1032.730053558315	445.162745899490	402.957226781743	956.108454927819	324.773963230129	342.342330122621	1033.112212098409	214.473687979962	391.897952017010	878.735391569250	385.228462605535	623.073626847164	791.596325401053	292.993633570069	684.615269146444	808.127850414886	197.066127664859	613.412654677480	646.187515631336	46.740691567936	579.147523896605	818.535868520099	96.185334545382	618.338785993451	727.860748024871	37.851450948429	654.548338909242	936.121722711196	39.570060281648	648.967053135323	932.125509610009	41.337628079444	418.167855463836	1007.653111141908	44.653772248508	339.498476980643	1084.394629854950	115.173084106863	365.549472519554	1215.592814808207	76.850558922450	338.940284068363	678.903280497626	1115.013684195931	318.937479478969	615.952746839411	864.256780037309	356.330530472176	1101.842151731152	1153.752274287350	850.602291955847	1355.923927996802	1153.455074165731	810.232290617080	
21	47.274285714286	707.324234750392	1001.291210140331	607.027105089204	853.366377097029	1422.508457457865	384.979975781903	987.444053580922	1356.269062708470	522.447775145588	943.714021963491	1440.803823126389	705.164981301469	869.393320552077	1485.636386180744	539.241110887237	948.935963303609	931.975584509085	683.156973503289	893.697893087568	955.902436383922	415.119444675919	960.141688027334	722.243056713559	643.707896940978	871.475548413038	615.085177453295	705.644490692370	932.519364081564	560.644838852495	615.965844254257	921.777062002391	467.748197912881	618.690377138069	974.766805283612	769.717279131079	438.516305703412	921.607331220444	643.217965649245	361.505979487191	1024.819311439733	582.386995179352	421.803648868038	1049.929422893177	515.652259279653	415.938123439461	1027.799556581696	443.460020717057	401.655994747690	952.959369098230	321.702011360227	341.799250639336	1031.712604232354	212.886122904805	391.770300146153	873.164892741929	385.057216601832	622.567212388674	785.830287851290	293.158543665414	684.438192517894	802.260675240010	197.024435469433	613.311856591912	640.167867261832	46.673464025857	579.213379932463	812.558505304957	96.148123088740	618.349385088413	721.855344703373	37.779558839231	654.605897811457	930.148802196806	39.562357538845	648.961854990539	932.672503308463	39.777622132242	418.625175718137	1008.344940386023	43.036980558629	340.057079463611	1084.869802000027	113.467519688861	366.199478420866	1216.143872853004	75.173931777810	340.019129893498	675.574682585516	1116.313498762349	318.209702391058	610.815420779764	865.959194037942	357.680428440355	1110.781322263434	1158.844832755258	845.041595099599	1364.011872354673	1169.129811093619	801.391050283113	
